<?xml version="1.0" standalone="no"?>
<!DOCTYPE svg PUBLIC "-//W3C//DTD SVG 20010904//EN"
 "http://www.w3.org/TR/2001/REC-SVG-20010904/DTD/svg10.dtd">
<svg version="1.0" xmlns="http://www.w3.org/2000/svg"
 width="900.000000pt" height="900.000000pt" viewBox="0 0 900.000000 900.000000"
 preserveAspectRatio="xMidYMid meet">

<g transform="translate(0.000000,900.000000) scale(0.100000,-0.100000)"
fill="#000000" stroke="none">
<path d="M2670 6860 l0 -110 -210 0 -210 0 0 -1745 0 -1745 -100 0 -100 0 0
-620 0 -620 925 0 925 0 0 620 c0 613 0 620 20 620 18 0 20 7 20 55 l0 55 560
0 560 0 0 -55 0 -55 40 0 40 0 0 -620 0 -620 930 0 930 0 0 620 0 620 -125 0
-125 0 0 1745 0 1745 -495 0 -495 0 0 110 0 110 -1545 0 -1545 0 0 -110z"/>
</g>
</svg>
