<?xml version="1.0" standalone="yes"?><svg xmlns="http://www.w3.org/2000/svg" width="128" height="128" viewBox="0 0 900 900">
<path style="fill:#010101; stroke:none;" d="M0 0L0 900L900 900L900 0L0 0z"/>
<path style="fill:#6b4135; stroke:none;" d="M267 203L267 265L390 265L390 203L267 203z"/>
<path style="fill:#7d4d39; stroke:none;" d="M390 203L390 265L329 265L329 327L368 327C368 331.095 369.337 338.139 366.972 341.682C365.245 344.271 361.725 343.98 359 343.999C351.667 344.05 344.333 344 337 344L337 394L281 394L281 338L225 338L225 394L281 394L281 506L225 506L225 563L337 563L337 675L368 675L368 591L390 591L390 574L394 574L394 529L368 529L368 467L390 467L390 450L514 450L514 512L506 512L506 574L514 574L514 675L553 675L553 611C553 606.385 550.923 594.984 555.316 592.028C557.202 590.759 559.85 591.025 562 591L562 563L675 563L675 506L619 506L619 394L675 394L675 338L619 338L619 394L562 394L562 327L576 327L576 265L514 265L514 203L390 203z"/>
<path style="fill:#6b4135; stroke:none;" d="M514 203L514 265L576 265L576 281L619 281L619 225L576 225L576 203L514 203z"/>
<path style="fill:#7d4d39; stroke:none;" d="M225 225L225 281L244 281L244 225L225 225z"/>
<path style="fill:#69412b; stroke:none;" d="M244 225L244 281C245.769 276.785 245 271.536 245 267L245 240C245 235.191 245.875 229.469 244 225z"/>
<path style="fill:#5b3525; stroke:none;" d="M245 225L245 281L281 281L281 265L267 265L267 225L245 225z"/>
<path style="fill:#7d4d39; stroke:none;" d="M619 225L619 281L675 281L675 225L619 225z"/>
<path style="fill:#4d2b21; stroke:none;" d="M281 265L281 281L329 281L329 265L281 265M390 265L390 281L450 281L450 265L390 265z"/>
<path style="fill:#69412b; stroke:none;" d="M450 265L450 281L492 281L492 343L506 343L506 265L450 265z"/>
<path style="fill:#4d2b21; stroke:none;" d="M506 265L506 281L514 281L514 265L506 265z"/>
<path style="fill:#8f5b41; stroke:none;" d="M225 281L225 338L281 338L281 394L337 394L337 344L305 344L305 282L225 281z"/>
<path style="fill:#82523a; stroke:none;" d="M244 281C249.707 283.395 257.846 282 264 282L305 282L305 344L337 344C328.633 340.489 315.076 343 306 343L306 281L244 281z"/>
<path style="fill:#69412b; stroke:none;" d="M306 281L306 343L337 343L337 327L329 327L329 281L306 281z"/>
<path style="fill:#5b3731; stroke:none;" d="M390 281C395.462 283.292 403.113 282 409 282L450 282C444.538 279.708 436.887 281 431 281L390 281z"/>
<path style="fill:#82523a; stroke:none;" d="M450 281C454.215 282.769 459.464 282 464 282L491 282L491 344L506 344C501.783 342.231 496.541 343 492 343L492 281L450 281z"/>
<path style="fill:#5b3525; stroke:none;" d="M506 281L506 343L553 343L553 327L514 327L514 281L506 281z"/>
<path style="fill:#8f5b41; stroke:none;" d="M576 281L576 327L562 327L562 394L619 394L619 338L675 338L675 281L576 281z"/>
<path style="fill:#6b4135; stroke:none;" d="M394 282L394 394L450 394L450 282L394 282z"/>
<path style="fill:#8f5b41; stroke:none;" d="M450 282L450 394L506 394L506 344L491 344L491 282L450 282z"/>
<path style="fill:#5b3525; stroke:none;" d="M337 327L337 343L368 343L368 327L337 327z"/>
<path style="fill:#633b2b; stroke:none;" d="M553 327L553 343C554.812 338.681 554.812 331.319 553 327z"/>
<path style="fill:#6b4135; stroke:none;" d="M337 343C345.128 346.411 358.186 344 367 344C358.872 340.589 345.814 343 337 343z"/>
<path style="fill:#704432; stroke:none;" d="M506 343C510.72 344.981 516.92 344 522 344L553 344C548.28 342.019 542.08 343 537 343L506 343z"/>
<path style="fill:#212123; stroke:none;" d="M225 394L225 450L281 450L281 394L225 394M619 394L619 450L675 450L675 394L619 394z"/>
<path style="fill:#a16b47; stroke:none;" d="M225 450L225 506L281 506L281 450L225 450z"/>
<path style="fill:#47312b; stroke:none;" d="M390 450L390 512L514 512L514 450L390 450z"/>
<path style="fill:#a16b47; stroke:none;" d="M619 450L619 506L675 506L675 450L619 450z"/>
<path style="fill:#633b2b; stroke:none;" d="M368 467L368 529L394 529C387.072 526.093 376.497 528 369 528L369 468L390 468C383.798 465.397 374.702 467 368 467z"/>
<path style="fill:#5b3525; stroke:none;" d="M369 468L369 528L394 528L394 512L390 512L390 468L369 468z"/>
<path style="fill:#4d2b21; stroke:none;" d="M394 512L394 529L492 529L492 512L394 512z"/>
<path style="fill:#6b4135; stroke:none;" d="M492 512L492 529L394 529L394 563L506 563L506 512L492 512M225 563L225 574L205 574L205 636L329 636L329 675L337 675L337 563L225 563z"/>
<path style="fill:#ffffe7; stroke:none;" d="M394 563L394 574L390 574L390 698L452 698C452 658.687 452.66 619.31 451.995 580.004C451.898 574.224 450.001 568.906 450 563L394 563z"/>
<path style="fill:#ffe1bb; stroke:none;" d="M450 563C450 569.242 451.893 574.898 451.995 581.001C452.65 619.976 452 659.019 452 698L514 698L514 574L506 574L506 563L450 563z"/>
<path style="fill:#6b4135; stroke:none;" d="M562 563L562 591L576 591L576 636L700 636L700 574L675 574L675 563L562 563z"/>
<path style="fill:#633b2b; stroke:none;" d="M368 591L368 675C371.004 667.841 369 656.744 369 649L369 592L390 592C383.798 589.397 374.702 591 368 591z"/>
<path style="fill:#5b3525; stroke:none;" d="M554 591L554 675L562 675L562 591L554 591z"/>
<path style="fill:#4d2b21; stroke:none;" d="M562 591L562 675L514 675L514 698L576 698L576 591L562 591z"/>
<path style="fill:#5b3525; stroke:none;" d="M369 592L369 675L390 675L390 592L369 592z"/>
<path style="fill:#704432; stroke:none;" d="M553 592L553 675C555.292 669.538 554 661.887 554 656L554 614C554 607.314 555.599 598.194 553 592z"/>
<path style="fill:#5b3731; stroke:none;" d="M205 636L205 698L329 698L329 636L205 636M576 636L576 698L700 698L700 636L576 636z"/>
<path style="fill:#4d2b21; stroke:none;" d="M329 675L329 698L390 698L390 675L329 675z"/>
</svg>